<?xml version="1.0" encoding="utf-8" standalone="no"?>
<!DOCTYPE svg PUBLIC "-//W3C//DTD SVG 1.1//EN"
  "http://www.w3.org/Graphics/SVG/1.1/DTD/svg11.dtd">
<svg xmlns:xlink="http://www.w3.org/1999/xlink" width="576pt" height="576pt" viewBox="0 0 576 576" xmlns="http://www.w3.org/2000/svg" version="1.1">
 <metadata>
  <rdf:RDF xmlns:dc="http://purl.org/dc/elements/1.1/" xmlns:cc="http://creativecommons.org/ns#" xmlns:rdf="http://www.w3.org/1999/02/22-rdf-syntax-ns#">
   <cc:Work>
    <dc:type rdf:resource="http://purl.org/dc/dcmitype/StillImage"/>
    <dc:date>2023-11-07T11:29:18.000007</dc:date>
    <dc:format>image/svg+xml</dc:format>
    <dc:creator>
     <cc:Agent>
      <dc:title>Matplotlib v3.7.1, https://matplotlib.org/</dc:title>
     </cc:Agent>
    </dc:creator>
   </cc:Work>
  </rdf:RDF>
 </metadata>
 <defs>
  <style type="text/css">*{stroke-linejoin: round; stroke-linecap: butt}</style>
 </defs>
 <g id="figure_1">
  <g id="patch_1">
   <path d="M 0 576 
L 576 576 
L 576 0 
L 0 0 
L 0 576 
z
" style="fill: none"/>
  </g>
  <g id="axes_1">
   <g id="patch_2">
    <path d="M 518.4 259.2 
C 518.4 232.726131 513.185225 206.509686 503.054114 182.05102 
C 492.923003 157.592354 478.07258 135.367126 459.352727 116.647273 
C 440.632874 97.92742 418.407646 83.076997 393.94898 72.945886 
C 369.490314 62.814775 343.273869 57.6 316.8 57.6 
C 290.326131 57.6 264.109686 62.814775 239.65102 72.945886 
C 215.192354 83.076997 192.967126 97.92742 174.247273 116.647273 
C 155.52742 135.367126 140.676997 157.592354 130.545886 182.05102 
C 120.414775 206.509686 115.2 232.726131 115.2 259.2 
C 115.2 285.673869 120.414775 311.890314 130.545886 336.34898 
C 140.676997 360.807646 155.52742 383.032874 174.247273 401.752727 
C 192.967126 420.47258 215.192354 435.323003 239.65102 445.454114 
C 264.109686 455.585225 290.326131 460.8 316.8 460.8 
C 343.273869 460.8 369.490314 455.585225 393.94898 445.454114 
C 418.407646 435.323003 440.632874 420.47258 459.352727 401.752727 
C 478.07258 383.032874 492.923003 360.807646 503.054114 336.34898 
C 513.185225 311.890314 518.4 285.673869 518.4 259.2 
M 316.8 259.2 
C 316.8 259.2 316.8 259.2 316.8 259.2 
C 316.8 259.2 316.8 259.2 316.8 259.2 
C 316.8 259.2 316.8 259.2 316.8 259.2 
C 316.8 259.2 316.8 259.2 316.8 259.2 
C 316.8 259.2 316.8 259.2 316.8 259.2 
C 316.8 259.2 316.8 259.2 316.8 259.2 
C 316.8 259.2 316.8 259.2 316.8 259.2 
C 316.8 259.2 316.8 259.2 316.8 259.2 
C 316.8 259.2 316.8 259.2 316.8 259.2 
C 316.8 259.2 316.8 259.2 316.8 259.2 
C 316.8 259.2 316.8 259.2 316.8 259.2 
C 316.8 259.2 316.8 259.2 316.8 259.2 
C 316.8 259.2 316.8 259.2 316.8 259.2 
C 316.8 259.2 316.8 259.2 316.8 259.2 
C 316.8 259.2 316.8 259.2 316.8 259.2 
C 316.8 259.2 316.8 259.2 316.8 259.2 
L 316.8 259.2 
z
" style="fill: none"/>
   </g>
   <g id="matplotlib.axis_1">
    <g id="xtick_1">
     <g id="line2d_1">
      <path d="M 316.8 259.2 
L 518.4 259.2 
" clip-path="url(#p43e3f230c1)" style="fill: none; stroke: #b0b0b0; stroke-width: 0.8; stroke-linecap: square"/>
     </g>
     <g id="text_1">
      <text style="font: 16px 'Arial', sans-serif; text-anchor: middle" x="535.4" y="263.33625" transform="rotate(-0 535.4 263.33625)">0°</text>
     </g>
    </g>
    <g id="xtick_2">
     <g id="line2d_2">
      <path d="M 316.8 259.2 
L 459.352727 116.647273 
" clip-path="url(#p43e3f230c1)" style="fill: none; stroke: #b0b0b0; stroke-width: 0.8; stroke-linecap: square"/>
     </g>
     <g id="text_2">
      <text style="font: 16px 'Arial', sans-serif; text-anchor: middle" x="471.373542" y="108.762708" transform="rotate(-0 471.373542 108.762708)">45°</text>
     </g>
    </g>
    <g id="xtick_3">
     <g id="line2d_3">
      <path d="M 316.8 259.2 
L 316.8 57.6 
" clip-path="url(#p43e3f230c1)" style="fill: none; stroke: #b0b0b0; stroke-width: 0.8; stroke-linecap: square"/>
     </g>
     <g id="text_3">
      <text style="font: 16px 'Arial', sans-serif; text-anchor: middle" x="316.8" y="44.73625" transform="rotate(-0 316.8 44.73625)">90°</text>
     </g>
    </g>
    <g id="xtick_4">
     <g id="line2d_4">
      <path d="M 316.8 259.2 
L 174.247273 116.647273 
" clip-path="url(#p43e3f230c1)" style="fill: none; stroke: #b0b0b0; stroke-width: 0.8; stroke-linecap: square"/>
     </g>
     <g id="text_4">
      <text style="font: 16px 'Arial', sans-serif; text-anchor: middle" x="162.226458" y="108.762708" transform="rotate(-0 162.226458 108.762708)">135°</text>
     </g>
    </g>
    <g id="xtick_5">
     <g id="line2d_5">
      <path d="M 316.8 259.2 
L 115.2 259.2 
" clip-path="url(#p43e3f230c1)" style="fill: none; stroke: #b0b0b0; stroke-width: 0.8; stroke-linecap: square"/>
     </g>
     <g id="text_5">
      <text style="font: 16px 'Arial', sans-serif; text-anchor: middle" x="98.2" y="263.33625" transform="rotate(-0 98.2 263.33625)">180°</text>
     </g>
    </g>
    <g id="xtick_6">
     <g id="line2d_6">
      <path d="M 316.8 259.2 
L 174.247273 401.752727 
" clip-path="url(#p43e3f230c1)" style="fill: none; stroke: #b0b0b0; stroke-width: 0.8; stroke-linecap: square"/>
     </g>
     <g id="text_6">
      <text style="font: 16px 'Arial', sans-serif; text-anchor: middle" x="162.226458" y="417.909792" transform="rotate(-0 162.226458 417.909792)">225°</text>
     </g>
    </g>
    <g id="xtick_7">
     <g id="line2d_7">
      <path d="M 316.8 259.2 
L 316.8 460.8 
" clip-path="url(#p43e3f230c1)" style="fill: none; stroke: #b0b0b0; stroke-width: 0.8; stroke-linecap: square"/>
     </g>
     <g id="text_7">
      <text style="font: 16px 'Arial', sans-serif; text-anchor: middle" x="316.8" y="481.93625" transform="rotate(-0 316.8 481.93625)">270°</text>
     </g>
    </g>
    <g id="xtick_8">
     <g id="line2d_8">
      <path d="M 316.8 259.2 
L 459.352727 401.752727 
" clip-path="url(#p43e3f230c1)" style="fill: none; stroke: #b0b0b0; stroke-width: 0.8; stroke-linecap: square"/>
     </g>
     <g id="text_8">
      <text style="font: 16px 'Arial', sans-serif; text-anchor: middle" x="471.373542" y="417.909792" transform="rotate(-0 471.373542 417.909792)">315°</text>
     </g>
    </g>
    <g id="text_9">
     <!-- $\theta$ -->
     <g transform="translate(311.52 503.85925)">
      <text>
       <tspan style="font: italic 19.2px 'Arial'" x="0" y="-0.984375">θ</tspan>
      </text>
     </g>
    </g>
   </g>
   <g id="matplotlib.axis_2">
    <g id="ytick_1">
     <g id="line2d_9">
      <path d="M 386.814945 259.2 
C 386.814945 250.005722 385.003873 240.900846 381.485375 232.40644 
C 377.966877 223.912035 372.809379 216.193294 366.308043 209.691957 
C 359.806706 203.190621 352.087965 198.033123 343.59356 194.514625 
C 335.099154 190.996127 325.994278 189.185055 316.8 189.185055 
C 307.605722 189.185055 298.500846 190.996127 290.00644 194.514625 
C 281.512035 198.033123 273.793294 203.190621 267.291957 209.691957 
C 260.790621 216.193294 255.633123 223.912035 252.114625 232.40644 
C 248.596127 240.900846 246.785055 250.005722 246.785055 259.2 
C 246.785055 268.394278 248.596127 277.499154 252.114625 285.99356 
C 255.633123 294.487965 260.790621 302.206706 267.291957 308.708043 
C 273.793294 315.209379 281.512035 320.366877 290.00644 323.885375 
C 298.500846 327.403873 307.605722 329.214945 316.8 329.214945 
C 325.994278 329.214945 335.099154 327.403873 343.59356 323.885375 
C 352.087965 320.366877 359.806706 315.209379 366.308043 308.708043 
C 372.809379 302.206706 377.966877 294.487965 381.485375 285.99356 
C 385.003873 277.499154 386.814945 268.394278 386.814945 259.2 
" clip-path="url(#p43e3f230c1)" style="fill: none; stroke: #b0b0b0; stroke-width: 0.8; stroke-linecap: square"/>
     </g>
     <g id="text_10">
      <text style="fill: #808080; font: 16px 'Arial', sans-serif; text-anchor: start" x="381.485375" y="229.22644" transform="rotate(-0 381.485375 229.22644)">10°</text>
     </g>
    </g>
    <g id="ytick_2">
     <g id="line2d_10">
      <path d="M 454.702522 259.2 
C 454.702522 241.090807 451.135406 223.157703 444.205317 206.42699 
C 437.275229 189.696277 427.116942 174.493325 414.311808 161.688192 
C 401.506675 148.883058 386.303723 138.724771 369.57301 131.794683 
C 352.842297 124.864594 334.909193 121.297478 316.8 121.297478 
C 298.690807 121.297478 280.757703 124.864594 264.02699 131.794683 
C 247.296277 138.724771 232.093325 148.883058 219.288192 161.688192 
C 206.483058 174.493325 196.324771 189.696277 189.394683 206.42699 
C 182.464594 223.157703 178.897478 241.090807 178.897478 259.2 
C 178.897478 277.309193 182.464594 295.242297 189.394683 311.97301 
C 196.324771 328.703723 206.483058 343.906675 219.288192 356.711808 
C 232.093325 369.516942 247.296277 379.675229 264.02699 386.605317 
C 280.757703 393.535406 298.690807 397.102522 316.8 397.102522 
C 334.909193 397.102522 352.842297 393.535406 369.57301 386.605317 
C 386.303723 379.675229 401.506675 369.516942 414.311808 356.711808 
C 427.116942 343.906675 437.275229 328.703723 444.205317 311.97301 
C 451.135406 295.242297 454.702522 277.309193 454.702522 259.2 
" clip-path="url(#p43e3f230c1)" style="fill: none; stroke: #b0b0b0; stroke-width: 0.8; stroke-linecap: square"/>
     </g>
     <g id="text_11">
      <text style="fill: #808080; font: 16px 'Arial', sans-serif; text-anchor: start" x="444.205317" y="203.24699" transform="rotate(-0 444.205317 203.24699)">20°</text>
     </g>
    </g>
    <g id="ytick_3">
     <g id="line2d_11">
      <path d="M 518.4 259.2 
C 518.4 232.726131 513.185225 206.509686 503.054114 182.05102 
C 492.923003 157.592354 478.07258 135.367126 459.352727 116.647273 
C 440.632874 97.92742 418.407646 83.076997 393.94898 72.945886 
C 369.490314 62.814775 343.273869 57.6 316.8 57.6 
C 290.326131 57.6 264.109686 62.814775 239.65102 72.945886 
C 215.192354 83.076997 192.967126 97.92742 174.247273 116.647273 
C 155.52742 135.367126 140.676997 157.592354 130.545886 182.05102 
C 120.414775 206.509686 115.2 232.726131 115.2 259.2 
C 115.2 285.673869 120.414775 311.890314 130.545886 336.34898 
C 140.676997 360.807646 155.52742 383.032874 174.247273 401.752727 
C 192.967126 420.47258 215.192354 435.323003 239.65102 445.454114 
C 264.109686 455.585225 290.326131 460.8 316.8 460.8 
C 343.273869 460.8 369.490314 455.585225 393.94898 445.454114 
C 418.407646 435.323003 440.632874 420.47258 459.352727 401.752727 
C 478.07258 383.032874 492.923003 360.807646 503.054114 336.34898 
C 513.185225 311.890314 518.4 285.673869 518.4 259.2 
" clip-path="url(#p43e3f230c1)" style="fill: none; stroke: #b0b0b0; stroke-width: 0.8; stroke-linecap: square"/>
     </g>
     <g id="text_12">
      <text style="fill: #808080; font: 16px 'Arial', sans-serif; text-anchor: start" x="503.054114" y="178.87102" transform="rotate(-0 503.054114 178.87102)">30°</text>
     </g>
    </g>
   </g>
   <g id="line2d_12">
    <path d="M 351.985838 259.2 
L 351.851199 256.124832 
L 351.448311 253.073198 
L 350.780259 250.068453 
L 349.852155 247.133591 
L 348.671102 244.291075 
L 347.246138 241.562657 
L 345.588168 238.969218 
L 343.709882 236.530606 
L 341.625654 234.265484 
L 339.351434 232.191186 
L 336.904627 230.323588 
L 334.303958 228.676982 
L 331.569331 227.26397 
L 328.721675 226.095365 
L 325.782781 225.180111 
L 322.775141 224.525213 
L 319.721774 224.135682 
L 316.646046 224.014499 
L 313.571496 224.162592 
L 310.521654 224.578828 
L 307.519861 225.260021 
L 304.589089 226.200957 
L 301.751767 227.394437 
L 299.02961 228.831325 
L 296.44345 230.500626 
L 294.01308 232.389565 
L 291.757099 234.483684 
L 289.692772 236.766958 
L 287.835897 239.221913 
L 286.200686 241.829762 
L 284.799653 244.570545 
L 283.643519 247.423288 
L 282.741133 250.366158 
L 282.099401 253.376634 
L 281.723233 256.431677 
L 281.61551 259.507906 
L 281.777054 262.581778 
L 282.20663 265.629769 
L 282.900951 268.628554 
L 283.854702 271.555181 
L 285.060584 274.387253 
L 286.50937 277.103097 
L 288.18997 279.681928 
L 290.089524 282.10401 
L 292.193495 284.350807 
L 294.48578 286.405124 
L 296.948836 288.251239 
L 299.563814 289.875024 
L 302.310701 291.264051 
L 305.168475 292.407692 
L 308.115266 293.297193 
L 311.128521 293.925747 
L 314.185181 294.288544 
L 317.261851 294.382806 
L 320.334987 294.207814 
L 323.38107 293.764906 
L 326.376787 293.057471 
L 329.299213 292.090923 
L 332.125982 290.872661 
L 334.835461 289.412006 
L 337.406914 287.720138 
L 339.820661 285.810004 
L 342.058231 283.696223 
L 344.102498 281.394972 
L 345.937819 278.923861 
L 347.550146 276.301803 
L 348.927142 273.548865 
L 350.058267 270.686114 
L 350.934866 267.73546 
L 351.55023 264.719483 
L 351.899649 261.661266 
L 351.985838 259.2 
L 351.985838 259.2 
" clip-path="url(#p43e3f230c1)" style="fill: none; stroke: #ffa500; stroke-width: 8; stroke-linecap: square"/>
   </g>
   <g id="line2d_13">
    <defs>
     <path id="me8f007afc5" d="M 0 5 
C 1.326016 5 2.597899 4.473168 3.535534 3.535534 
C 4.473168 2.597899 5 1.326016 5 0 
C 5 -1.326016 4.473168 -2.597899 3.535534 -3.535534 
C 2.597899 -4.473168 1.326016 -5 0 -5 
C -1.326016 -5 -2.597899 -4.473168 -3.535534 -3.535534 
C -4.473168 -2.597899 -5 -1.326016 -5 0 
C -5 1.326016 -4.473168 2.597899 -3.535534 3.535534 
C -2.597899 4.473168 -1.326016 5 0 5 
z
"/>
    </defs>
    <g clip-path="url(#p43e3f230c1)">
     <use xlink:href="#me8f007afc5" x="316.8" y="259.2" style="fill: #00ffff"/>
    </g>
   </g>
   <g id="patch_3">
    <path d="M 518.4 259.2 
C 518.4 232.726131 513.185225 206.509686 503.054114 182.05102 
C 492.923003 157.592354 478.07258 135.367126 459.352727 116.647273 
C 440.632874 97.92742 418.407646 83.076997 393.94898 72.945886 
C 369.490314 62.814775 343.273869 57.6 316.8 57.6 
C 290.326131 57.6 264.109686 62.814775 239.65102 72.945886 
C 215.192354 83.076997 192.967126 97.92742 174.247273 116.647273 
C 155.52742 135.367126 140.676997 157.592354 130.545886 182.05102 
C 120.414775 206.509686 115.2 232.726131 115.2 259.2 
C 115.2 285.673869 120.414775 311.890314 130.545886 336.34898 
C 140.676997 360.807646 155.52742 383.032874 174.247273 401.752727 
C 192.967126 420.47258 215.192354 435.323003 239.65102 445.454114 
C 264.109686 455.585225 290.326131 460.8 316.8 460.8 
C 343.273869 460.8 369.490314 455.585225 393.94898 445.454114 
C 418.407646 435.323003 440.632874 420.47258 459.352727 401.752727 
C 478.07258 383.032874 492.923003 360.807646 503.054114 336.34898 
C 513.185225 311.890314 518.4 285.673869 518.4 259.2 
" style="fill: none; stroke: #000000; stroke-width: 1.5; stroke-linejoin: miter; stroke-linecap: square"/>
   </g>
   <g id="text_13">
    <!-- $\psi$ -->
    <g style="fill: #808080" transform="translate(539.623076 164.991915)">
     <text>
      <tspan style="font: italic 16px 'Arial'" x="0" y="-0.703125">ψ</tspan>
     </text>
    </g>
   </g>
  </g>
 </g>
 <defs>
  <clipPath id="p43e3f230c1">
   <path d="M 518.4 259.2 
C 518.4 232.726131 513.185225 206.509686 503.054114 182.05102 
C 492.923003 157.592354 478.07258 135.367126 459.352727 116.647273 
C 440.632874 97.92742 418.407646 83.076997 393.94898 72.945886 
C 369.490314 62.814775 343.273869 57.6 316.8 57.6 
C 290.326131 57.6 264.109686 62.814775 239.65102 72.945886 
C 215.192354 83.076997 192.967126 97.92742 174.247273 116.647273 
C 155.52742 135.367126 140.676997 157.592354 130.545886 182.05102 
C 120.414775 206.509686 115.2 232.726131 115.2 259.2 
C 115.2 285.673869 120.414775 311.890314 130.545886 336.34898 
C 140.676997 360.807646 155.52742 383.032874 174.247273 401.752727 
C 192.967126 420.47258 215.192354 435.323003 239.65102 445.454114 
C 264.109686 455.585225 290.326131 460.8 316.8 460.8 
C 343.273869 460.8 369.490314 455.585225 393.94898 445.454114 
C 418.407646 435.323003 440.632874 420.47258 459.352727 401.752727 
C 478.07258 383.032874 492.923003 360.807646 503.054114 336.34898 
C 513.185225 311.890314 518.4 285.673869 518.4 259.2 
M 316.8 259.2 
C 316.8 259.2 316.8 259.2 316.8 259.2 
C 316.8 259.2 316.8 259.2 316.8 259.2 
C 316.8 259.2 316.8 259.2 316.8 259.2 
C 316.8 259.2 316.8 259.2 316.8 259.2 
C 316.8 259.2 316.8 259.2 316.8 259.2 
C 316.8 259.2 316.8 259.2 316.8 259.2 
C 316.8 259.2 316.8 259.2 316.8 259.2 
C 316.8 259.2 316.8 259.2 316.8 259.2 
C 316.8 259.2 316.8 259.2 316.8 259.2 
C 316.8 259.2 316.8 259.2 316.8 259.2 
C 316.8 259.2 316.8 259.2 316.8 259.2 
C 316.8 259.2 316.8 259.2 316.8 259.2 
C 316.8 259.2 316.8 259.2 316.8 259.2 
C 316.8 259.2 316.8 259.2 316.8 259.2 
C 316.8 259.2 316.8 259.2 316.8 259.2 
C 316.8 259.2 316.8 259.2 316.8 259.2 
z
"/>
  </clipPath>
 </defs>
</svg>
