<?xml version="1.0" encoding="utf-8" standalone="no"?>
<!DOCTYPE svg PUBLIC "-//W3C//DTD SVG 1.1//EN"
  "http://www.w3.org/Graphics/SVG/1.1/DTD/svg11.dtd">
<svg xmlns:xlink="http://www.w3.org/1999/xlink" width="576pt" height="576pt" viewBox="0 0 576 576" xmlns="http://www.w3.org/2000/svg" version="1.1">
 <metadata>
  <rdf:RDF xmlns:dc="http://purl.org/dc/elements/1.1/" xmlns:cc="http://creativecommons.org/ns#" xmlns:rdf="http://www.w3.org/1999/02/22-rdf-syntax-ns#">
   <cc:Work>
    <dc:type rdf:resource="http://purl.org/dc/dcmitype/StillImage"/>
    <dc:date>2023-11-07T11:29:24.227095</dc:date>
    <dc:format>image/svg+xml</dc:format>
    <dc:creator>
     <cc:Agent>
      <dc:title>Matplotlib v3.7.1, https://matplotlib.org/</dc:title>
     </cc:Agent>
    </dc:creator>
   </cc:Work>
  </rdf:RDF>
 </metadata>
 <defs>
  <style type="text/css">*{stroke-linejoin: round; stroke-linecap: butt}</style>
 </defs>
 <g id="figure_1">
  <g id="patch_1">
   <path d="M 0 576 
L 576 576 
L 576 0 
L 0 0 
L 0 576 
z
" style="fill: none"/>
  </g>
  <g id="axes_1">
   <g id="patch_2">
    <path d="M 518.4 259.2 
C 518.4 232.726131 513.185225 206.509686 503.054114 182.05102 
C 492.923003 157.592354 478.07258 135.367126 459.352727 116.647273 
C 440.632874 97.92742 418.407646 83.076997 393.94898 72.945886 
C 369.490314 62.814775 343.273869 57.6 316.8 57.6 
C 290.326131 57.6 264.109686 62.814775 239.65102 72.945886 
C 215.192354 83.076997 192.967126 97.92742 174.247273 116.647273 
C 155.52742 135.367126 140.676997 157.592354 130.545886 182.05102 
C 120.414775 206.509686 115.2 232.726131 115.2 259.2 
C 115.2 285.673869 120.414775 311.890314 130.545886 336.34898 
C 140.676997 360.807646 155.52742 383.032874 174.247273 401.752727 
C 192.967126 420.47258 215.192354 435.323003 239.65102 445.454114 
C 264.109686 455.585225 290.326131 460.8 316.8 460.8 
C 343.273869 460.8 369.490314 455.585225 393.94898 445.454114 
C 418.407646 435.323003 440.632874 420.47258 459.352727 401.752727 
C 478.07258 383.032874 492.923003 360.807646 503.054114 336.34898 
C 513.185225 311.890314 518.4 285.673869 518.4 259.2 
M 316.8 259.2 
C 316.8 259.2 316.8 259.2 316.8 259.2 
C 316.8 259.2 316.8 259.2 316.8 259.2 
C 316.8 259.2 316.8 259.2 316.8 259.2 
C 316.8 259.2 316.8 259.2 316.8 259.2 
C 316.8 259.2 316.8 259.2 316.8 259.2 
C 316.8 259.2 316.8 259.2 316.8 259.2 
C 316.8 259.2 316.8 259.2 316.8 259.2 
C 316.8 259.2 316.8 259.2 316.8 259.2 
C 316.8 259.2 316.8 259.2 316.8 259.2 
C 316.8 259.2 316.8 259.2 316.8 259.2 
C 316.8 259.2 316.8 259.2 316.8 259.2 
C 316.8 259.2 316.8 259.2 316.8 259.2 
C 316.8 259.2 316.8 259.2 316.8 259.2 
C 316.8 259.2 316.8 259.2 316.8 259.2 
C 316.8 259.2 316.8 259.2 316.8 259.2 
C 316.8 259.2 316.8 259.2 316.8 259.2 
L 316.8 259.2 
z
" style="fill: none"/>
   </g>
   <g id="matplotlib.axis_1">
    <g id="xtick_1">
     <g id="line2d_1">
      <path d="M 316.8 259.2 
L 518.4 259.2 
" clip-path="url(#p1d1e78ff70)" style="fill: none; stroke: #b0b0b0; stroke-width: 0.8; stroke-linecap: square"/>
     </g>
     <g id="text_1">
      <text style="font: 16px 'Arial', sans-serif; text-anchor: middle" x="535.4" y="263.33625" transform="rotate(-0 535.4 263.33625)">0°</text>
     </g>
    </g>
    <g id="xtick_2">
     <g id="line2d_2">
      <path d="M 316.8 259.2 
L 459.352727 116.647273 
" clip-path="url(#p1d1e78ff70)" style="fill: none; stroke: #b0b0b0; stroke-width: 0.8; stroke-linecap: square"/>
     </g>
     <g id="text_2">
      <text style="font: 16px 'Arial', sans-serif; text-anchor: middle" x="471.373542" y="108.762708" transform="rotate(-0 471.373542 108.762708)">45°</text>
     </g>
    </g>
    <g id="xtick_3">
     <g id="line2d_3">
      <path d="M 316.8 259.2 
L 316.8 57.6 
" clip-path="url(#p1d1e78ff70)" style="fill: none; stroke: #b0b0b0; stroke-width: 0.8; stroke-linecap: square"/>
     </g>
     <g id="text_3">
      <text style="font: 16px 'Arial', sans-serif; text-anchor: middle" x="316.8" y="44.73625" transform="rotate(-0 316.8 44.73625)">90°</text>
     </g>
    </g>
    <g id="xtick_4">
     <g id="line2d_4">
      <path d="M 316.8 259.2 
L 174.247273 116.647273 
" clip-path="url(#p1d1e78ff70)" style="fill: none; stroke: #b0b0b0; stroke-width: 0.8; stroke-linecap: square"/>
     </g>
     <g id="text_4">
      <text style="font: 16px 'Arial', sans-serif; text-anchor: middle" x="162.226458" y="108.762708" transform="rotate(-0 162.226458 108.762708)">135°</text>
     </g>
    </g>
    <g id="xtick_5">
     <g id="line2d_5">
      <path d="M 316.8 259.2 
L 115.2 259.2 
" clip-path="url(#p1d1e78ff70)" style="fill: none; stroke: #b0b0b0; stroke-width: 0.8; stroke-linecap: square"/>
     </g>
     <g id="text_5">
      <text style="font: 16px 'Arial', sans-serif; text-anchor: middle" x="98.2" y="263.33625" transform="rotate(-0 98.2 263.33625)">180°</text>
     </g>
    </g>
    <g id="xtick_6">
     <g id="line2d_6">
      <path d="M 316.8 259.2 
L 174.247273 401.752727 
" clip-path="url(#p1d1e78ff70)" style="fill: none; stroke: #b0b0b0; stroke-width: 0.8; stroke-linecap: square"/>
     </g>
     <g id="text_6">
      <text style="font: 16px 'Arial', sans-serif; text-anchor: middle" x="162.226458" y="417.909792" transform="rotate(-0 162.226458 417.909792)">225°</text>
     </g>
    </g>
    <g id="xtick_7">
     <g id="line2d_7">
      <path d="M 316.8 259.2 
L 316.8 460.8 
" clip-path="url(#p1d1e78ff70)" style="fill: none; stroke: #b0b0b0; stroke-width: 0.8; stroke-linecap: square"/>
     </g>
     <g id="text_7">
      <text style="font: 16px 'Arial', sans-serif; text-anchor: middle" x="316.8" y="481.93625" transform="rotate(-0 316.8 481.93625)">270°</text>
     </g>
    </g>
    <g id="xtick_8">
     <g id="line2d_8">
      <path d="M 316.8 259.2 
L 459.352727 401.752727 
" clip-path="url(#p1d1e78ff70)" style="fill: none; stroke: #b0b0b0; stroke-width: 0.8; stroke-linecap: square"/>
     </g>
     <g id="text_8">
      <text style="font: 16px 'Arial', sans-serif; text-anchor: middle" x="471.373542" y="417.909792" transform="rotate(-0 471.373542 417.909792)">315°</text>
     </g>
    </g>
    <g id="text_9">
     <!-- $\theta$ -->
     <g transform="translate(311.52 503.85925)">
      <text>
       <tspan style="font: italic 19.2px 'Arial'" x="0" y="-0.984375">θ</tspan>
      </text>
     </g>
    </g>
   </g>
   <g id="matplotlib.axis_2">
    <g id="ytick_1">
     <g id="line2d_9">
      <path d="M 386.814945 259.2 
C 386.814945 250.005722 385.003873 240.900846 381.485375 232.40644 
C 377.966877 223.912035 372.809379 216.193294 366.308043 209.691957 
C 359.806706 203.190621 352.087965 198.033123 343.59356 194.514625 
C 335.099154 190.996127 325.994278 189.185055 316.8 189.185055 
C 307.605722 189.185055 298.500846 190.996127 290.00644 194.514625 
C 281.512035 198.033123 273.793294 203.190621 267.291957 209.691957 
C 260.790621 216.193294 255.633123 223.912035 252.114625 232.40644 
C 248.596127 240.900846 246.785055 250.005722 246.785055 259.2 
C 246.785055 268.394278 248.596127 277.499154 252.114625 285.99356 
C 255.633123 294.487965 260.790621 302.206706 267.291957 308.708043 
C 273.793294 315.209379 281.512035 320.366877 290.00644 323.885375 
C 298.500846 327.403873 307.605722 329.214945 316.8 329.214945 
C 325.994278 329.214945 335.099154 327.403873 343.59356 323.885375 
C 352.087965 320.366877 359.806706 315.209379 366.308043 308.708043 
C 372.809379 302.206706 377.966877 294.487965 381.485375 285.99356 
C 385.003873 277.499154 386.814945 268.394278 386.814945 259.2 
" clip-path="url(#p1d1e78ff70)" style="fill: none; stroke: #b0b0b0; stroke-width: 0.8; stroke-linecap: square"/>
     </g>
     <g id="text_10">
      <text style="fill: #808080; font: 16px 'Arial', sans-serif; text-anchor: start" x="381.485375" y="229.22644" transform="rotate(-0 381.485375 229.22644)">10°</text>
     </g>
    </g>
    <g id="ytick_2">
     <g id="line2d_10">
      <path d="M 454.702522 259.2 
C 454.702522 241.090807 451.135406 223.157703 444.205317 206.42699 
C 437.275229 189.696277 427.116942 174.493325 414.311808 161.688192 
C 401.506675 148.883058 386.303723 138.724771 369.57301 131.794683 
C 352.842297 124.864594 334.909193 121.297478 316.8 121.297478 
C 298.690807 121.297478 280.757703 124.864594 264.02699 131.794683 
C 247.296277 138.724771 232.093325 148.883058 219.288192 161.688192 
C 206.483058 174.493325 196.324771 189.696277 189.394683 206.42699 
C 182.464594 223.157703 178.897478 241.090807 178.897478 259.2 
C 178.897478 277.309193 182.464594 295.242297 189.394683 311.97301 
C 196.324771 328.703723 206.483058 343.906675 219.288192 356.711808 
C 232.093325 369.516942 247.296277 379.675229 264.02699 386.605317 
C 280.757703 393.535406 298.690807 397.102522 316.8 397.102522 
C 334.909193 397.102522 352.842297 393.535406 369.57301 386.605317 
C 386.303723 379.675229 401.506675 369.516942 414.311808 356.711808 
C 427.116942 343.906675 437.275229 328.703723 444.205317 311.97301 
C 451.135406 295.242297 454.702522 277.309193 454.702522 259.2 
" clip-path="url(#p1d1e78ff70)" style="fill: none; stroke: #b0b0b0; stroke-width: 0.8; stroke-linecap: square"/>
     </g>
     <g id="text_11">
      <text style="fill: #808080; font: 16px 'Arial', sans-serif; text-anchor: start" x="444.205317" y="203.24699" transform="rotate(-0 444.205317 203.24699)">20°</text>
     </g>
    </g>
    <g id="ytick_3">
     <g id="line2d_11">
      <path d="M 518.4 259.2 
C 518.4 232.726131 513.185225 206.509686 503.054114 182.05102 
C 492.923003 157.592354 478.07258 135.367126 459.352727 116.647273 
C 440.632874 97.92742 418.407646 83.076997 393.94898 72.945886 
C 369.490314 62.814775 343.273869 57.6 316.8 57.6 
C 290.326131 57.6 264.109686 62.814775 239.65102 72.945886 
C 215.192354 83.076997 192.967126 97.92742 174.247273 116.647273 
C 155.52742 135.367126 140.676997 157.592354 130.545886 182.05102 
C 120.414775 206.509686 115.2 232.726131 115.2 259.2 
C 115.2 285.673869 120.414775 311.890314 130.545886 336.34898 
C 140.676997 360.807646 155.52742 383.032874 174.247273 401.752727 
C 192.967126 420.47258 215.192354 435.323003 239.65102 445.454114 
C 264.109686 455.585225 290.326131 460.8 316.8 460.8 
C 343.273869 460.8 369.490314 455.585225 393.94898 445.454114 
C 418.407646 435.323003 440.632874 420.47258 459.352727 401.752727 
C 478.07258 383.032874 492.923003 360.807646 503.054114 336.34898 
C 513.185225 311.890314 518.4 285.673869 518.4 259.2 
" clip-path="url(#p1d1e78ff70)" style="fill: none; stroke: #b0b0b0; stroke-width: 0.8; stroke-linecap: square"/>
     </g>
     <g id="text_12">
      <text style="fill: #808080; font: 16px 'Arial', sans-serif; text-anchor: start" x="503.054114" y="178.87102" transform="rotate(-0 503.054114 178.87102)">30°</text>
     </g>
    </g>
   </g>
   <g id="line2d_12">
    <defs>
     <path id="m83e9fc4c64" d="M 0 5 
C 1.326016 5 2.597899 4.473168 3.535534 3.535534 
C 4.473168 2.597899 5 1.326016 5 0 
C 5 -1.326016 4.473168 -2.597899 3.535534 -3.535534 
C 2.597899 -4.473168 1.326016 -5 0 -5 
C -1.326016 -5 -2.597899 -4.473168 -3.535534 -3.535534 
C -4.473168 -2.597899 -5 -1.326016 -5 0 
C -5 1.326016 -4.473168 2.597899 -3.535534 3.535534 
C -2.597899 4.473168 -1.326016 5 0 5 
z
"/>
    </defs>
    <g clip-path="url(#p1d1e78ff70)">
     <use xlink:href="#m83e9fc4c64" x="387.171675" y="259.2" style="fill: #6495ed"/>
     <use xlink:href="#m83e9fc4c64" x="387.165613" y="258.276298" style="fill: #6495ed"/>
     <use xlink:href="#m83e9fc4c64" x="387.147426" y="257.352754" style="fill: #6495ed"/>
     <use xlink:href="#m83e9fc4c64" x="387.117119" y="256.429529" style="fill: #6495ed"/>
     <use xlink:href="#m83e9fc4c64" x="387.074696" y="255.506782" style="fill: #6495ed"/>
     <use xlink:href="#m83e9fc4c64" x="387.020164" y="254.58467" style="fill: #6495ed"/>
     <use xlink:href="#m83e9fc4c64" x="386.953533" y="253.663354" style="fill: #6495ed"/>
     <use xlink:href="#m83e9fc4c64" x="386.874815" y="252.742992" style="fill: #6495ed"/>
     <use xlink:href="#m83e9fc4c64" x="386.784023" y="251.823742" style="fill: #6495ed"/>
     <use xlink:href="#m83e9fc4c64" x="386.681173" y="250.905764" style="fill: #6495ed"/>
     <use xlink:href="#m83e9fc4c64" x="386.566282" y="249.989214" style="fill: #6495ed"/>
     <use xlink:href="#m83e9fc4c64" x="386.439371" y="249.074252" style="fill: #6495ed"/>
     <use xlink:href="#m83e9fc4c64" x="386.30046" y="248.161034" style="fill: #6495ed"/>
     <use xlink:href="#m83e9fc4c64" x="386.149574" y="247.249718" style="fill: #6495ed"/>
     <use xlink:href="#m83e9fc4c64" x="385.98674" y="246.340461" style="fill: #6495ed"/>
     <use xlink:href="#m83e9fc4c64" x="385.811984" y="245.43342" style="fill: #6495ed"/>
     <use xlink:href="#m83e9fc4c64" x="385.625338" y="244.528751" style="fill: #6495ed"/>
     <use xlink:href="#m83e9fc4c64" x="385.426833" y="243.62661" style="fill: #6495ed"/>
     <use xlink:href="#m83e9fc4c64" x="385.216504" y="242.727152" style="fill: #6495ed"/>
     <use xlink:href="#m83e9fc4c64" x="384.994386" y="241.830532" style="fill: #6495ed"/>
     <use xlink:href="#m83e9fc4c64" x="384.760519" y="240.936905" style="fill: #6495ed"/>
     <use xlink:href="#m83e9fc4c64" x="384.514941" y="240.046425" style="fill: #6495ed"/>
     <use xlink:href="#m83e9fc4c64" x="384.257697" y="239.159245" style="fill: #6495ed"/>
     <use xlink:href="#m83e9fc4c64" x="383.988829" y="238.275518" style="fill: #6495ed"/>
     <use xlink:href="#m83e9fc4c64" x="383.708385" y="237.395397" style="fill: #6495ed"/>
     <use xlink:href="#m83e9fc4c64" x="383.416412" y="236.519032" style="fill: #6495ed"/>
     <use xlink:href="#m83e9fc4c64" x="383.112962" y="235.646575" style="fill: #6495ed"/>
     <use xlink:href="#m83e9fc4c64" x="382.798085" y="234.778177" style="fill: #6495ed"/>
     <use xlink:href="#m83e9fc4c64" x="382.471837" y="233.913986" style="fill: #6495ed"/>
     <use xlink:href="#m83e9fc4c64" x="382.134274" y="233.054153" style="fill: #6495ed"/>
     <use xlink:href="#m83e9fc4c64" x="381.785454" y="232.198824" style="fill: #6495ed"/>
     <use xlink:href="#m83e9fc4c64" x="381.425436" y="231.348148" style="fill: #6495ed"/>
     <use xlink:href="#m83e9fc4c64" x="381.054284" y="230.50227" style="fill: #6495ed"/>
     <use xlink:href="#m83e9fc4c64" x="380.67206" y="229.661337" style="fill: #6495ed"/>
     <use xlink:href="#m83e9fc4c64" x="380.278832" y="228.825494" style="fill: #6495ed"/>
     <use xlink:href="#m83e9fc4c64" x="379.874665" y="227.994884" style="fill: #6495ed"/>
     <use xlink:href="#m83e9fc4c64" x="379.459632" y="227.169651" style="fill: #6495ed"/>
     <use xlink:href="#m83e9fc4c64" x="379.033801" y="226.349936" style="fill: #6495ed"/>
     <use xlink:href="#m83e9fc4c64" x="378.597248" y="225.535882" style="fill: #6495ed"/>
     <use xlink:href="#m83e9fc4c64" x="378.150047" y="224.727628" style="fill: #6495ed"/>
     <use xlink:href="#m83e9fc4c64" x="377.692276" y="223.925314" style="fill: #6495ed"/>
     <use xlink:href="#m83e9fc4c64" x="377.224012" y="223.129077" style="fill: #6495ed"/>
     <use xlink:href="#m83e9fc4c64" x="376.745338" y="222.339056" style="fill: #6495ed"/>
     <use xlink:href="#m83e9fc4c64" x="376.256335" y="221.555386" style="fill: #6495ed"/>
     <use xlink:href="#m83e9fc4c64" x="375.757087" y="220.778202" style="fill: #6495ed"/>
     <use xlink:href="#m83e9fc4c64" x="375.247681" y="220.007638" style="fill: #6495ed"/>
     <use xlink:href="#m83e9fc4c64" x="374.728205" y="219.243827" style="fill: #6495ed"/>
     <use xlink:href="#m83e9fc4c64" x="374.198748" y="218.4869" style="fill: #6495ed"/>
     <use xlink:href="#m83e9fc4c64" x="373.6594" y="217.736989" style="fill: #6495ed"/>
     <use xlink:href="#m83e9fc4c64" x="373.110256" y="216.994221" style="fill: #6495ed"/>
     <use xlink:href="#m83e9fc4c64" x="372.55141" y="216.258726" style="fill: #6495ed"/>
     <use xlink:href="#m83e9fc4c64" x="371.982957" y="215.530629" style="fill: #6495ed"/>
     <use xlink:href="#m83e9fc4c64" x="371.404996" y="214.810057" style="fill: #6495ed"/>
     <use xlink:href="#m83e9fc4c64" x="370.817627" y="214.097133" style="fill: #6495ed"/>
     <use xlink:href="#m83e9fc4c64" x="370.220951" y="213.39198" style="fill: #6495ed"/>
     <use xlink:href="#m83e9fc4c64" x="369.61507" y="212.69472" style="fill: #6495ed"/>
     <use xlink:href="#m83e9fc4c64" x="369.000089" y="212.005473" style="fill: #6495ed"/>
     <use xlink:href="#m83e9fc4c64" x="368.376114" y="211.324358" style="fill: #6495ed"/>
     <use xlink:href="#m83e9fc4c64" x="367.743253" y="210.651491" style="fill: #6495ed"/>
     <use xlink:href="#m83e9fc4c64" x="367.101614" y="209.98699" style="fill: #6495ed"/>
     <use xlink:href="#m83e9fc4c64" x="366.451307" y="209.330968" style="fill: #6495ed"/>
     <use xlink:href="#m83e9fc4c64" x="365.792446" y="208.683538" style="fill: #6495ed"/>
     <use xlink:href="#m83e9fc4c64" x="365.125144" y="208.044813" style="fill: #6495ed"/>
     <use xlink:href="#m83e9fc4c64" x="364.449515" y="207.414901" style="fill: #6495ed"/>
     <use xlink:href="#m83e9fc4c64" x="363.765676" y="206.793912" style="fill: #6495ed"/>
     <use xlink:href="#m83e9fc4c64" x="363.073744" y="206.181953" style="fill: #6495ed"/>
     <use xlink:href="#m83e9fc4c64" x="362.37384" y="205.579129" style="fill: #6495ed"/>
     <use xlink:href="#m83e9fc4c64" x="361.666083" y="204.985544" style="fill: #6495ed"/>
     <use xlink:href="#m83e9fc4c64" x="360.950596" y="204.4013" style="fill: #6495ed"/>
     <use xlink:href="#m83e9fc4c64" x="360.227502" y="203.826497" style="fill: #6495ed"/>
     <use xlink:href="#m83e9fc4c64" x="359.496925" y="203.261236" style="fill: #6495ed"/>
     <use xlink:href="#m83e9fc4c64" x="358.758991" y="202.705613" style="fill: #6495ed"/>
     <use xlink:href="#m83e9fc4c64" x="358.013828" y="202.159724" style="fill: #6495ed"/>
     <use xlink:href="#m83e9fc4c64" x="357.261564" y="201.623663" style="fill: #6495ed"/>
     <use xlink:href="#m83e9fc4c64" x="356.502328" y="201.097523" style="fill: #6495ed"/>
     <use xlink:href="#m83e9fc4c64" x="355.736251" y="200.581393" style="fill: #6495ed"/>
     <use xlink:href="#m83e9fc4c64" x="354.963466" y="200.075364" style="fill: #6495ed"/>
     <use xlink:href="#m83e9fc4c64" x="354.184105" y="199.579522" style="fill: #6495ed"/>
     <use xlink:href="#m83e9fc4c64" x="353.398302" y="199.093952" style="fill: #6495ed"/>
     <use xlink:href="#m83e9fc4c64" x="352.606194" y="198.618739" style="fill: #6495ed"/>
     <use xlink:href="#m83e9fc4c64" x="351.807917" y="198.153964" style="fill: #6495ed"/>
     <use xlink:href="#m83e9fc4c64" x="351.003607" y="197.699708" style="fill: #6495ed"/>
     <use xlink:href="#m83e9fc4c64" x="350.193404" y="197.256047" style="fill: #6495ed"/>
     <use xlink:href="#m83e9fc4c64" x="349.377448" y="196.82306" style="fill: #6495ed"/>
     <use xlink:href="#m83e9fc4c64" x="348.555878" y="196.400821" style="fill: #6495ed"/>
     <use xlink:href="#m83e9fc4c64" x="347.728837" y="195.989401" style="fill: #6495ed"/>
     <use xlink:href="#m83e9fc4c64" x="346.896466" y="195.588873" style="fill: #6495ed"/>
     <use xlink:href="#m83e9fc4c64" x="346.05891" y="195.199306" style="fill: #6495ed"/>
     <use xlink:href="#m83e9fc4c64" x="345.216313" y="194.820765" style="fill: #6495ed"/>
     <use xlink:href="#m83e9fc4c64" x="344.36882" y="194.453318" style="fill: #6495ed"/>
     <use xlink:href="#m83e9fc4c64" x="343.516576" y="194.097026" style="fill: #6495ed"/>
     <use xlink:href="#m83e9fc4c64" x="342.659729" y="193.751951" style="fill: #6495ed"/>
     <use xlink:href="#m83e9fc4c64" x="341.798427" y="193.418153" style="fill: #6495ed"/>
     <use xlink:href="#m83e9fc4c64" x="340.932817" y="193.09569" style="fill: #6495ed"/>
     <use xlink:href="#m83e9fc4c64" x="340.063049" y="192.784616" style="fill: #6495ed"/>
     <use xlink:href="#m83e9fc4c64" x="339.189273" y="192.484986" style="fill: #6495ed"/>
     <use xlink:href="#m83e9fc4c64" x="338.311639" y="192.19685" style="fill: #6495ed"/>
     <use xlink:href="#m83e9fc4c64" x="337.430299" y="191.92026" style="fill: #6495ed"/>
     <use xlink:href="#m83e9fc4c64" x="336.545404" y="191.655261" style="fill: #6495ed"/>
     <use xlink:href="#m83e9fc4c64" x="335.657107" y="191.401901" style="fill: #6495ed"/>
     <use xlink:href="#m83e9fc4c64" x="334.765561" y="191.160223" style="fill: #6495ed"/>
     <use xlink:href="#m83e9fc4c64" x="333.870919" y="190.930267" style="fill: #6495ed"/>
     <use xlink:href="#m83e9fc4c64" x="332.973337" y="190.712075" style="fill: #6495ed"/>
     <use xlink:href="#m83e9fc4c64" x="332.072967" y="190.505683" style="fill: #6495ed"/>
     <use xlink:href="#m83e9fc4c64" x="331.169966" y="190.311127" style="fill: #6495ed"/>
     <use xlink:href="#m83e9fc4c64" x="330.264489" y="190.128441" style="fill: #6495ed"/>
     <use xlink:href="#m83e9fc4c64" x="329.356692" y="189.957656" style="fill: #6495ed"/>
     <use xlink:href="#m83e9fc4c64" x="328.446731" y="189.798801" style="fill: #6495ed"/>
     <use xlink:href="#m83e9fc4c64" x="327.534764" y="189.651905" style="fill: #6495ed"/>
     <use xlink:href="#m83e9fc4c64" x="326.620947" y="189.516991" style="fill: #6495ed"/>
     <use xlink:href="#m83e9fc4c64" x="325.705438" y="189.394084" style="fill: #6495ed"/>
     <use xlink:href="#m83e9fc4c64" x="324.788394" y="189.283205" style="fill: #6495ed"/>
     <use xlink:href="#m83e9fc4c64" x="323.869975" y="189.184372" style="fill: #6495ed"/>
     <use xlink:href="#m83e9fc4c64" x="322.950336" y="189.097603" style="fill: #6495ed"/>
     <use xlink:href="#m83e9fc4c64" x="322.029639" y="189.022913" style="fill: #6495ed"/>
     <use xlink:href="#m83e9fc4c64" x="321.10804" y="188.960314" style="fill: #6495ed"/>
     <use xlink:href="#m83e9fc4c64" x="320.185699" y="188.909818" style="fill: #6495ed"/>
     <use xlink:href="#m83e9fc4c64" x="319.262774" y="188.871432" style="fill: #6495ed"/>
     <use xlink:href="#m83e9fc4c64" x="318.339426" y="188.845165" style="fill: #6495ed"/>
     <use xlink:href="#m83e9fc4c64" x="317.415811" y="188.831019" style="fill: #6495ed"/>
     <use xlink:href="#m83e9fc4c64" x="316.492091" y="188.828998" style="fill: #6495ed"/>
     <use xlink:href="#m83e9fc4c64" x="315.568424" y="188.839102" style="fill: #6495ed"/>
     <use xlink:href="#m83e9fc4c64" x="314.644969" y="188.86133" style="fill: #6495ed"/>
     <use xlink:href="#m83e9fc4c64" x="313.721886" y="188.895676" style="fill: #6495ed"/>
     <use xlink:href="#m83e9fc4c64" x="312.799333" y="188.942137" style="fill: #6495ed"/>
     <use xlink:href="#m83e9fc4c64" x="311.877469" y="189.000702" style="fill: #6495ed"/>
     <use xlink:href="#m83e9fc4c64" x="310.956453" y="189.071363" style="fill: #6495ed"/>
     <use xlink:href="#m83e9fc4c64" x="310.036444" y="189.154108" style="fill: #6495ed"/>
     <use xlink:href="#m83e9fc4c64" x="309.1176" y="189.248921" style="fill: #6495ed"/>
     <use xlink:href="#m83e9fc4c64" x="308.200081" y="189.355787" style="fill: #6495ed"/>
     <use xlink:href="#m83e9fc4c64" x="307.284043" y="189.474687" style="fill: #6495ed"/>
     <use xlink:href="#m83e9fc4c64" x="306.369644" y="189.605601" style="fill: #6495ed"/>
     <use xlink:href="#m83e9fc4c64" x="305.457043" y="189.748506" style="fill: #6495ed"/>
     <use xlink:href="#m83e9fc4c64" x="304.546396" y="189.903378" style="fill: #6495ed"/>
     <use xlink:href="#m83e9fc4c64" x="303.63786" y="190.070189" style="fill: #6495ed"/>
     <use xlink:href="#m83e9fc4c64" x="302.731592" y="190.248911" style="fill: #6495ed"/>
     <use xlink:href="#m83e9fc4c64" x="301.827749" y="190.439514" style="fill: #6495ed"/>
     <use xlink:href="#m83e9fc4c64" x="300.926485" y="190.641965" style="fill: #6495ed"/>
     <use xlink:href="#m83e9fc4c64" x="300.027956" y="190.856228" style="fill: #6495ed"/>
     <use xlink:href="#m83e9fc4c64" x="299.132316" y="191.082266" style="fill: #6495ed"/>
     <use xlink:href="#m83e9fc4c64" x="298.239721" y="191.320042" style="fill: #6495ed"/>
     <use xlink:href="#m83e9fc4c64" x="297.350324" y="191.569513" style="fill: #6495ed"/>
     <use xlink:href="#m83e9fc4c64" x="296.464278" y="191.830637" style="fill: #6495ed"/>
     <use xlink:href="#m83e9fc4c64" x="295.581736" y="192.103368" style="fill: #6495ed"/>
     <use xlink:href="#m83e9fc4c64" x="294.70285" y="192.387661" style="fill: #6495ed"/>
     <use xlink:href="#m83e9fc4c64" x="293.827772" y="192.683465" style="fill: #6495ed"/>
     <use xlink:href="#m83e9fc4c64" x="292.956651" y="192.99073" style="fill: #6495ed"/>
     <use xlink:href="#m83e9fc4c64" x="292.089639" y="193.309403" style="fill: #6495ed"/>
     <use xlink:href="#m83e9fc4c64" x="291.226884" y="193.639429" style="fill: #6495ed"/>
     <use xlink:href="#m83e9fc4c64" x="290.368535" y="193.980751" style="fill: #6495ed"/>
     <use xlink:href="#m83e9fc4c64" x="289.514741" y="194.333311" style="fill: #6495ed"/>
     <use xlink:href="#m83e9fc4c64" x="288.665648" y="194.697047" style="fill: #6495ed"/>
     <use xlink:href="#m83e9fc4c64" x="287.821402" y="195.071897" style="fill: #6495ed"/>
     <use xlink:href="#m83e9fc4c64" x="286.98215" y="195.457796" style="fill: #6495ed"/>
     <use xlink:href="#m83e9fc4c64" x="286.148035" y="195.854679" style="fill: #6495ed"/>
     <use xlink:href="#m83e9fc4c64" x="285.319202" y="196.262475" style="fill: #6495ed"/>
     <use xlink:href="#m83e9fc4c64" x="284.495792" y="196.681116" style="fill: #6495ed"/>
     <use xlink:href="#m83e9fc4c64" x="283.677949" y="197.110529" style="fill: #6495ed"/>
     <use xlink:href="#m83e9fc4c64" x="282.865813" y="197.55064" style="fill: #6495ed"/>
     <use xlink:href="#m83e9fc4c64" x="282.059523" y="198.001373" style="fill: #6495ed"/>
     <use xlink:href="#m83e9fc4c64" x="281.25922" y="198.46265" style="fill: #6495ed"/>
     <use xlink:href="#m83e9fc4c64" x="280.46504" y="198.934393" style="fill: #6495ed"/>
     <use xlink:href="#m83e9fc4c64" x="279.67712" y="199.41652" style="fill: #6495ed"/>
     <use xlink:href="#m83e9fc4c64" x="278.895597" y="199.908947" style="fill: #6495ed"/>
     <use xlink:href="#m83e9fc4c64" x="278.120605" y="200.41159" style="fill: #6495ed"/>
     <use xlink:href="#m83e9fc4c64" x="277.352277" y="200.924363" style="fill: #6495ed"/>
     <use xlink:href="#m83e9fc4c64" x="276.590747" y="201.447176" style="fill: #6495ed"/>
     <use xlink:href="#m83e9fc4c64" x="275.836144" y="201.979941" style="fill: #6495ed"/>
     <use xlink:href="#m83e9fc4c64" x="275.088599" y="202.522564" style="fill: #6495ed"/>
     <use xlink:href="#m83e9fc4c64" x="274.348242" y="203.074953" style="fill: #6495ed"/>
     <use xlink:href="#m83e9fc4c64" x="273.615199" y="203.637012" style="fill: #6495ed"/>
     <use xlink:href="#m83e9fc4c64" x="272.889596" y="204.208645" style="fill: #6495ed"/>
     <use xlink:href="#m83e9fc4c64" x="272.171559" y="204.789753" style="fill: #6495ed"/>
     <use xlink:href="#m83e9fc4c64" x="271.461212" y="205.380236" style="fill: #6495ed"/>
     <use xlink:href="#m83e9fc4c64" x="270.758677" y="205.979992" style="fill: #6495ed"/>
     <use xlink:href="#m83e9fc4c64" x="270.064075" y="206.588917" style="fill: #6495ed"/>
     <use xlink:href="#m83e9fc4c64" x="269.377525" y="207.206908" style="fill: #6495ed"/>
     <use xlink:href="#m83e9fc4c64" x="268.699147" y="207.833857" style="fill: #6495ed"/>
     <use xlink:href="#m83e9fc4c64" x="268.029056" y="208.469657" style="fill: #6495ed"/>
     <use xlink:href="#m83e9fc4c64" x="267.367368" y="209.114198" style="fill: #6495ed"/>
     <use xlink:href="#m83e9fc4c64" x="266.714198" y="209.767368" style="fill: #6495ed"/>
     <use xlink:href="#m83e9fc4c64" x="266.069657" y="210.429056" style="fill: #6495ed"/>
     <use xlink:href="#m83e9fc4c64" x="265.433857" y="211.099147" style="fill: #6495ed"/>
     <use xlink:href="#m83e9fc4c64" x="264.806908" y="211.777525" style="fill: #6495ed"/>
     <use xlink:href="#m83e9fc4c64" x="264.188917" y="212.464075" style="fill: #6495ed"/>
     <use xlink:href="#m83e9fc4c64" x="263.579992" y="213.158677" style="fill: #6495ed"/>
     <use xlink:href="#m83e9fc4c64" x="262.980236" y="213.861212" style="fill: #6495ed"/>
     <use xlink:href="#m83e9fc4c64" x="262.389753" y="214.571559" style="fill: #6495ed"/>
     <use xlink:href="#m83e9fc4c64" x="261.808645" y="215.289596" style="fill: #6495ed"/>
     <use xlink:href="#m83e9fc4c64" x="261.237012" y="216.015199" style="fill: #6495ed"/>
     <use xlink:href="#m83e9fc4c64" x="260.674953" y="216.748242" style="fill: #6495ed"/>
     <use xlink:href="#m83e9fc4c64" x="260.122564" y="217.488599" style="fill: #6495ed"/>
     <use xlink:href="#m83e9fc4c64" x="259.579941" y="218.236144" style="fill: #6495ed"/>
     <use xlink:href="#m83e9fc4c64" x="259.047176" y="218.990747" style="fill: #6495ed"/>
     <use xlink:href="#m83e9fc4c64" x="258.524363" y="219.752277" style="fill: #6495ed"/>
     <use xlink:href="#m83e9fc4c64" x="258.01159" y="220.520605" style="fill: #6495ed"/>
     <use xlink:href="#m83e9fc4c64" x="257.508947" y="221.295597" style="fill: #6495ed"/>
     <use xlink:href="#m83e9fc4c64" x="257.01652" y="222.07712" style="fill: #6495ed"/>
     <use xlink:href="#m83e9fc4c64" x="256.534393" y="222.86504" style="fill: #6495ed"/>
     <use xlink:href="#m83e9fc4c64" x="256.06265" y="223.65922" style="fill: #6495ed"/>
     <use xlink:href="#m83e9fc4c64" x="255.601373" y="224.459523" style="fill: #6495ed"/>
     <use xlink:href="#m83e9fc4c64" x="255.15064" y="225.265813" style="fill: #6495ed"/>
     <use xlink:href="#m83e9fc4c64" x="254.710529" y="226.077949" style="fill: #6495ed"/>
     <use xlink:href="#m83e9fc4c64" x="254.281116" y="226.895792" style="fill: #6495ed"/>
     <use xlink:href="#m83e9fc4c64" x="253.862475" y="227.719202" style="fill: #6495ed"/>
     <use xlink:href="#m83e9fc4c64" x="253.454679" y="228.548035" style="fill: #6495ed"/>
     <use xlink:href="#m83e9fc4c64" x="253.057796" y="229.38215" style="fill: #6495ed"/>
     <use xlink:href="#m83e9fc4c64" x="252.671897" y="230.221402" style="fill: #6495ed"/>
     <use xlink:href="#m83e9fc4c64" x="252.297047" y="231.065648" style="fill: #6495ed"/>
     <use xlink:href="#m83e9fc4c64" x="251.933311" y="231.914741" style="fill: #6495ed"/>
     <use xlink:href="#m83e9fc4c64" x="251.580751" y="232.768535" style="fill: #6495ed"/>
     <use xlink:href="#m83e9fc4c64" x="251.239429" y="233.626884" style="fill: #6495ed"/>
     <use xlink:href="#m83e9fc4c64" x="250.909403" y="234.489639" style="fill: #6495ed"/>
     <use xlink:href="#m83e9fc4c64" x="250.59073" y="235.356651" style="fill: #6495ed"/>
     <use xlink:href="#m83e9fc4c64" x="250.283465" y="236.227772" style="fill: #6495ed"/>
     <use xlink:href="#m83e9fc4c64" x="249.987661" y="237.10285" style="fill: #6495ed"/>
     <use xlink:href="#m83e9fc4c64" x="249.703368" y="237.981736" style="fill: #6495ed"/>
     <use xlink:href="#m83e9fc4c64" x="249.430637" y="238.864278" style="fill: #6495ed"/>
     <use xlink:href="#m83e9fc4c64" x="249.169513" y="239.750324" style="fill: #6495ed"/>
     <use xlink:href="#m83e9fc4c64" x="248.920042" y="240.639721" style="fill: #6495ed"/>
     <use xlink:href="#m83e9fc4c64" x="248.682266" y="241.532316" style="fill: #6495ed"/>
     <use xlink:href="#m83e9fc4c64" x="248.456228" y="242.427956" style="fill: #6495ed"/>
     <use xlink:href="#m83e9fc4c64" x="248.241965" y="243.326485" style="fill: #6495ed"/>
     <use xlink:href="#m83e9fc4c64" x="248.039514" y="244.227749" style="fill: #6495ed"/>
     <use xlink:href="#m83e9fc4c64" x="247.848911" y="245.131592" style="fill: #6495ed"/>
     <use xlink:href="#m83e9fc4c64" x="247.670189" y="246.03786" style="fill: #6495ed"/>
     <use xlink:href="#m83e9fc4c64" x="247.503378" y="246.946396" style="fill: #6495ed"/>
     <use xlink:href="#m83e9fc4c64" x="247.348506" y="247.857043" style="fill: #6495ed"/>
     <use xlink:href="#m83e9fc4c64" x="247.205601" y="248.769644" style="fill: #6495ed"/>
     <use xlink:href="#m83e9fc4c64" x="247.074687" y="249.684043" style="fill: #6495ed"/>
     <use xlink:href="#m83e9fc4c64" x="246.955787" y="250.600081" style="fill: #6495ed"/>
     <use xlink:href="#m83e9fc4c64" x="246.848921" y="251.5176" style="fill: #6495ed"/>
     <use xlink:href="#m83e9fc4c64" x="246.754108" y="252.436444" style="fill: #6495ed"/>
     <use xlink:href="#m83e9fc4c64" x="246.671363" y="253.356453" style="fill: #6495ed"/>
     <use xlink:href="#m83e9fc4c64" x="246.600702" y="254.277469" style="fill: #6495ed"/>
     <use xlink:href="#m83e9fc4c64" x="246.542137" y="255.199333" style="fill: #6495ed"/>
     <use xlink:href="#m83e9fc4c64" x="246.495676" y="256.121886" style="fill: #6495ed"/>
     <use xlink:href="#m83e9fc4c64" x="246.46133" y="257.044969" style="fill: #6495ed"/>
     <use xlink:href="#m83e9fc4c64" x="246.439102" y="257.968424" style="fill: #6495ed"/>
     <use xlink:href="#m83e9fc4c64" x="246.428998" y="258.892091" style="fill: #6495ed"/>
     <use xlink:href="#m83e9fc4c64" x="246.431019" y="259.815811" style="fill: #6495ed"/>
     <use xlink:href="#m83e9fc4c64" x="246.445165" y="260.739426" style="fill: #6495ed"/>
     <use xlink:href="#m83e9fc4c64" x="246.471432" y="261.662774" style="fill: #6495ed"/>
     <use xlink:href="#m83e9fc4c64" x="246.509818" y="262.585699" style="fill: #6495ed"/>
     <use xlink:href="#m83e9fc4c64" x="246.560314" y="263.50804" style="fill: #6495ed"/>
     <use xlink:href="#m83e9fc4c64" x="246.622913" y="264.429639" style="fill: #6495ed"/>
     <use xlink:href="#m83e9fc4c64" x="246.697603" y="265.350336" style="fill: #6495ed"/>
     <use xlink:href="#m83e9fc4c64" x="246.784372" y="266.269975" style="fill: #6495ed"/>
     <use xlink:href="#m83e9fc4c64" x="246.883205" y="267.188394" style="fill: #6495ed"/>
     <use xlink:href="#m83e9fc4c64" x="246.994084" y="268.105438" style="fill: #6495ed"/>
     <use xlink:href="#m83e9fc4c64" x="247.116991" y="269.020947" style="fill: #6495ed"/>
     <use xlink:href="#m83e9fc4c64" x="247.251905" y="269.934764" style="fill: #6495ed"/>
     <use xlink:href="#m83e9fc4c64" x="247.398801" y="270.846731" style="fill: #6495ed"/>
     <use xlink:href="#m83e9fc4c64" x="247.557656" y="271.756692" style="fill: #6495ed"/>
     <use xlink:href="#m83e9fc4c64" x="247.728441" y="272.664489" style="fill: #6495ed"/>
     <use xlink:href="#m83e9fc4c64" x="247.911127" y="273.569966" style="fill: #6495ed"/>
     <use xlink:href="#m83e9fc4c64" x="248.105683" y="274.472967" style="fill: #6495ed"/>
     <use xlink:href="#m83e9fc4c64" x="248.312075" y="275.373337" style="fill: #6495ed"/>
     <use xlink:href="#m83e9fc4c64" x="248.530267" y="276.270919" style="fill: #6495ed"/>
     <use xlink:href="#m83e9fc4c64" x="248.760223" y="277.165561" style="fill: #6495ed"/>
     <use xlink:href="#m83e9fc4c64" x="249.001901" y="278.057107" style="fill: #6495ed"/>
     <use xlink:href="#m83e9fc4c64" x="249.255261" y="278.945404" style="fill: #6495ed"/>
     <use xlink:href="#m83e9fc4c64" x="249.52026" y="279.830299" style="fill: #6495ed"/>
     <use xlink:href="#m83e9fc4c64" x="249.79685" y="280.711639" style="fill: #6495ed"/>
     <use xlink:href="#m83e9fc4c64" x="250.084986" y="281.589273" style="fill: #6495ed"/>
     <use xlink:href="#m83e9fc4c64" x="250.384616" y="282.463049" style="fill: #6495ed"/>
     <use xlink:href="#m83e9fc4c64" x="250.69569" y="283.332817" style="fill: #6495ed"/>
     <use xlink:href="#m83e9fc4c64" x="251.018153" y="284.198427" style="fill: #6495ed"/>
     <use xlink:href="#m83e9fc4c64" x="251.351951" y="285.059729" style="fill: #6495ed"/>
     <use xlink:href="#m83e9fc4c64" x="251.697026" y="285.916576" style="fill: #6495ed"/>
     <use xlink:href="#m83e9fc4c64" x="252.053318" y="286.76882" style="fill: #6495ed"/>
     <use xlink:href="#m83e9fc4c64" x="252.420765" y="287.616313" style="fill: #6495ed"/>
     <use xlink:href="#m83e9fc4c64" x="252.799306" y="288.45891" style="fill: #6495ed"/>
     <use xlink:href="#m83e9fc4c64" x="253.188873" y="289.296466" style="fill: #6495ed"/>
     <use xlink:href="#m83e9fc4c64" x="253.589401" y="290.128837" style="fill: #6495ed"/>
     <use xlink:href="#m83e9fc4c64" x="254.000821" y="290.955878" style="fill: #6495ed"/>
     <use xlink:href="#m83e9fc4c64" x="254.42306" y="291.777448" style="fill: #6495ed"/>
     <use xlink:href="#m83e9fc4c64" x="254.856047" y="292.593404" style="fill: #6495ed"/>
     <use xlink:href="#m83e9fc4c64" x="255.299708" y="293.403607" style="fill: #6495ed"/>
     <use xlink:href="#m83e9fc4c64" x="255.753964" y="294.207917" style="fill: #6495ed"/>
     <use xlink:href="#m83e9fc4c64" x="256.218739" y="295.006194" style="fill: #6495ed"/>
     <use xlink:href="#m83e9fc4c64" x="256.693952" y="295.798302" style="fill: #6495ed"/>
     <use xlink:href="#m83e9fc4c64" x="257.179522" y="296.584105" style="fill: #6495ed"/>
     <use xlink:href="#m83e9fc4c64" x="257.675364" y="297.363466" style="fill: #6495ed"/>
     <use xlink:href="#m83e9fc4c64" x="258.181393" y="298.136251" style="fill: #6495ed"/>
     <use xlink:href="#m83e9fc4c64" x="258.697523" y="298.902328" style="fill: #6495ed"/>
     <use xlink:href="#m83e9fc4c64" x="259.223663" y="299.661564" style="fill: #6495ed"/>
     <use xlink:href="#m83e9fc4c64" x="259.759724" y="300.413828" style="fill: #6495ed"/>
     <use xlink:href="#m83e9fc4c64" x="260.305613" y="301.158991" style="fill: #6495ed"/>
     <use xlink:href="#m83e9fc4c64" x="260.861236" y="301.896925" style="fill: #6495ed"/>
     <use xlink:href="#m83e9fc4c64" x="261.426497" y="302.627502" style="fill: #6495ed"/>
     <use xlink:href="#m83e9fc4c64" x="262.0013" y="303.350596" style="fill: #6495ed"/>
     <use xlink:href="#m83e9fc4c64" x="262.585544" y="304.066083" style="fill: #6495ed"/>
     <use xlink:href="#m83e9fc4c64" x="263.179129" y="304.77384" style="fill: #6495ed"/>
     <use xlink:href="#m83e9fc4c64" x="263.781953" y="305.473744" style="fill: #6495ed"/>
     <use xlink:href="#m83e9fc4c64" x="264.393912" y="306.165676" style="fill: #6495ed"/>
     <use xlink:href="#m83e9fc4c64" x="265.014901" y="306.849515" style="fill: #6495ed"/>
     <use xlink:href="#m83e9fc4c64" x="265.644813" y="307.525144" style="fill: #6495ed"/>
     <use xlink:href="#m83e9fc4c64" x="266.283538" y="308.192446" style="fill: #6495ed"/>
     <use xlink:href="#m83e9fc4c64" x="266.930968" y="308.851307" style="fill: #6495ed"/>
     <use xlink:href="#m83e9fc4c64" x="267.58699" y="309.501614" style="fill: #6495ed"/>
     <use xlink:href="#m83e9fc4c64" x="268.251491" y="310.143253" style="fill: #6495ed"/>
     <use xlink:href="#m83e9fc4c64" x="268.924358" y="310.776114" style="fill: #6495ed"/>
     <use xlink:href="#m83e9fc4c64" x="269.605473" y="311.400089" style="fill: #6495ed"/>
     <use xlink:href="#m83e9fc4c64" x="270.29472" y="312.01507" style="fill: #6495ed"/>
     <use xlink:href="#m83e9fc4c64" x="270.99198" y="312.620951" style="fill: #6495ed"/>
     <use xlink:href="#m83e9fc4c64" x="271.697133" y="313.217627" style="fill: #6495ed"/>
     <use xlink:href="#m83e9fc4c64" x="272.410057" y="313.804996" style="fill: #6495ed"/>
     <use xlink:href="#m83e9fc4c64" x="273.130629" y="314.382957" style="fill: #6495ed"/>
     <use xlink:href="#m83e9fc4c64" x="273.858726" y="314.95141" style="fill: #6495ed"/>
     <use xlink:href="#m83e9fc4c64" x="274.594221" y="315.510256" style="fill: #6495ed"/>
     <use xlink:href="#m83e9fc4c64" x="275.336989" y="316.0594" style="fill: #6495ed"/>
     <use xlink:href="#m83e9fc4c64" x="276.0869" y="316.598748" style="fill: #6495ed"/>
     <use xlink:href="#m83e9fc4c64" x="276.843827" y="317.128205" style="fill: #6495ed"/>
     <use xlink:href="#m83e9fc4c64" x="277.607638" y="317.647681" style="fill: #6495ed"/>
     <use xlink:href="#m83e9fc4c64" x="278.378202" y="318.157087" style="fill: #6495ed"/>
     <use xlink:href="#m83e9fc4c64" x="279.155386" y="318.656335" style="fill: #6495ed"/>
     <use xlink:href="#m83e9fc4c64" x="279.939056" y="319.145338" style="fill: #6495ed"/>
     <use xlink:href="#m83e9fc4c64" x="280.729077" y="319.624012" style="fill: #6495ed"/>
     <use xlink:href="#m83e9fc4c64" x="281.525314" y="320.092276" style="fill: #6495ed"/>
     <use xlink:href="#m83e9fc4c64" x="282.327628" y="320.550047" style="fill: #6495ed"/>
     <use xlink:href="#m83e9fc4c64" x="283.135882" y="320.997248" style="fill: #6495ed"/>
     <use xlink:href="#m83e9fc4c64" x="283.949936" y="321.433801" style="fill: #6495ed"/>
     <use xlink:href="#m83e9fc4c64" x="284.769651" y="321.859632" style="fill: #6495ed"/>
     <use xlink:href="#m83e9fc4c64" x="285.594884" y="322.274665" style="fill: #6495ed"/>
     <use xlink:href="#m83e9fc4c64" x="286.425494" y="322.678832" style="fill: #6495ed"/>
     <use xlink:href="#m83e9fc4c64" x="287.261337" y="323.07206" style="fill: #6495ed"/>
     <use xlink:href="#m83e9fc4c64" x="288.10227" y="323.454284" style="fill: #6495ed"/>
     <use xlink:href="#m83e9fc4c64" x="288.948148" y="323.825436" style="fill: #6495ed"/>
     <use xlink:href="#m83e9fc4c64" x="289.798824" y="324.185454" style="fill: #6495ed"/>
     <use xlink:href="#m83e9fc4c64" x="290.654153" y="324.534274" style="fill: #6495ed"/>
     <use xlink:href="#m83e9fc4c64" x="291.513986" y="324.871837" style="fill: #6495ed"/>
     <use xlink:href="#m83e9fc4c64" x="292.378177" y="325.198085" style="fill: #6495ed"/>
     <use xlink:href="#m83e9fc4c64" x="293.246575" y="325.512962" style="fill: #6495ed"/>
     <use xlink:href="#m83e9fc4c64" x="294.119032" y="325.816412" style="fill: #6495ed"/>
     <use xlink:href="#m83e9fc4c64" x="294.995397" y="326.108385" style="fill: #6495ed"/>
     <use xlink:href="#m83e9fc4c64" x="295.875518" y="326.388829" style="fill: #6495ed"/>
     <use xlink:href="#m83e9fc4c64" x="296.759245" y="326.657697" style="fill: #6495ed"/>
     <use xlink:href="#m83e9fc4c64" x="297.646425" y="326.914941" style="fill: #6495ed"/>
     <use xlink:href="#m83e9fc4c64" x="298.536905" y="327.160519" style="fill: #6495ed"/>
     <use xlink:href="#m83e9fc4c64" x="299.430532" y="327.394386" style="fill: #6495ed"/>
     <use xlink:href="#m83e9fc4c64" x="300.327152" y="327.616504" style="fill: #6495ed"/>
     <use xlink:href="#m83e9fc4c64" x="301.22661" y="327.826833" style="fill: #6495ed"/>
     <use xlink:href="#m83e9fc4c64" x="302.128751" y="328.025338" style="fill: #6495ed"/>
     <use xlink:href="#m83e9fc4c64" x="303.03342" y="328.211984" style="fill: #6495ed"/>
     <use xlink:href="#m83e9fc4c64" x="303.940461" y="328.38674" style="fill: #6495ed"/>
     <use xlink:href="#m83e9fc4c64" x="304.849718" y="328.549574" style="fill: #6495ed"/>
     <use xlink:href="#m83e9fc4c64" x="305.761034" y="328.70046" style="fill: #6495ed"/>
     <use xlink:href="#m83e9fc4c64" x="306.674252" y="328.839371" style="fill: #6495ed"/>
     <use xlink:href="#m83e9fc4c64" x="307.589214" y="328.966282" style="fill: #6495ed"/>
     <use xlink:href="#m83e9fc4c64" x="308.505764" y="329.081173" style="fill: #6495ed"/>
     <use xlink:href="#m83e9fc4c64" x="309.423742" y="329.184023" style="fill: #6495ed"/>
     <use xlink:href="#m83e9fc4c64" x="310.342992" y="329.274815" style="fill: #6495ed"/>
     <use xlink:href="#m83e9fc4c64" x="311.263354" y="329.353533" style="fill: #6495ed"/>
     <use xlink:href="#m83e9fc4c64" x="312.18467" y="329.420164" style="fill: #6495ed"/>
     <use xlink:href="#m83e9fc4c64" x="313.106782" y="329.474696" style="fill: #6495ed"/>
     <use xlink:href="#m83e9fc4c64" x="314.029529" y="329.517119" style="fill: #6495ed"/>
     <use xlink:href="#m83e9fc4c64" x="314.952754" y="329.547426" style="fill: #6495ed"/>
     <use xlink:href="#m83e9fc4c64" x="315.876298" y="329.565613" style="fill: #6495ed"/>
     <use xlink:href="#m83e9fc4c64" x="316.8" y="329.571675" style="fill: #6495ed"/>
    </g>
   </g>
   <g id="line2d_13">
    <defs>
     <path id="m27650be6a0" d="M 0 5 
C 1.326016 5 2.597899 4.473168 3.535534 3.535534 
C 4.473168 2.597899 5 1.326016 5 0 
C 5 -1.326016 4.473168 -2.597899 3.535534 -3.535534 
C 2.597899 -4.473168 1.326016 -5 0 -5 
C -1.326016 -5 -2.597899 -4.473168 -3.535534 -3.535534 
C -4.473168 -2.597899 -5 -1.326016 -5 0 
C -5 1.326016 -4.473168 2.597899 -3.535534 3.535534 
C -2.597899 4.473168 -1.326016 5 0 5 
z
"/>
    </defs>
    <g clip-path="url(#p1d1e78ff70)">
     <use xlink:href="#m27650be6a0" x="366.560289" y="308.960289" style="fill: #ff0000"/>
    </g>
   </g>
   <g id="patch_3">
    <path d="M 518.4 259.2 
C 518.4 232.726131 513.185225 206.509686 503.054114 182.05102 
C 492.923003 157.592354 478.07258 135.367126 459.352727 116.647273 
C 440.632874 97.92742 418.407646 83.076997 393.94898 72.945886 
C 369.490314 62.814775 343.273869 57.6 316.8 57.6 
C 290.326131 57.6 264.109686 62.814775 239.65102 72.945886 
C 215.192354 83.076997 192.967126 97.92742 174.247273 116.647273 
C 155.52742 135.367126 140.676997 157.592354 130.545886 182.05102 
C 120.414775 206.509686 115.2 232.726131 115.2 259.2 
C 115.2 285.673869 120.414775 311.890314 130.545886 336.34898 
C 140.676997 360.807646 155.52742 383.032874 174.247273 401.752727 
C 192.967126 420.47258 215.192354 435.323003 239.65102 445.454114 
C 264.109686 455.585225 290.326131 460.8 316.8 460.8 
C 343.273869 460.8 369.490314 455.585225 393.94898 445.454114 
C 418.407646 435.323003 440.632874 420.47258 459.352727 401.752727 
C 478.07258 383.032874 492.923003 360.807646 503.054114 336.34898 
C 513.185225 311.890314 518.4 285.673869 518.4 259.2 
" style="fill: none; stroke: #000000; stroke-width: 1.5; stroke-linejoin: miter; stroke-linecap: square"/>
   </g>
   <g id="text_13">
    <!-- $\psi$ -->
    <g style="fill: #808080" transform="translate(539.623076 164.991915)">
     <text>
      <tspan style="font: italic 16px 'Arial'" x="0" y="-0.703125">ψ</tspan>
     </text>
    </g>
   </g>
  </g>
 </g>
 <defs>
  <clipPath id="p1d1e78ff70">
   <path d="M 518.4 259.2 
C 518.4 232.726131 513.185225 206.509686 503.054114 182.05102 
C 492.923003 157.592354 478.07258 135.367126 459.352727 116.647273 
C 440.632874 97.92742 418.407646 83.076997 393.94898 72.945886 
C 369.490314 62.814775 343.273869 57.6 316.8 57.6 
C 290.326131 57.6 264.109686 62.814775 239.65102 72.945886 
C 215.192354 83.076997 192.967126 97.92742 174.247273 116.647273 
C 155.52742 135.367126 140.676997 157.592354 130.545886 182.05102 
C 120.414775 206.509686 115.2 232.726131 115.2 259.2 
C 115.2 285.673869 120.414775 311.890314 130.545886 336.34898 
C 140.676997 360.807646 155.52742 383.032874 174.247273 401.752727 
C 192.967126 420.47258 215.192354 435.323003 239.65102 445.454114 
C 264.109686 455.585225 290.326131 460.8 316.8 460.8 
C 343.273869 460.8 369.490314 455.585225 393.94898 445.454114 
C 418.407646 435.323003 440.632874 420.47258 459.352727 401.752727 
C 478.07258 383.032874 492.923003 360.807646 503.054114 336.34898 
C 513.185225 311.890314 518.4 285.673869 518.4 259.2 
M 316.8 259.2 
C 316.8 259.2 316.8 259.2 316.8 259.2 
C 316.8 259.2 316.8 259.2 316.8 259.2 
C 316.8 259.2 316.8 259.2 316.8 259.2 
C 316.8 259.2 316.8 259.2 316.8 259.2 
C 316.8 259.2 316.8 259.2 316.8 259.2 
C 316.8 259.2 316.8 259.2 316.8 259.2 
C 316.8 259.2 316.8 259.2 316.8 259.2 
C 316.8 259.2 316.8 259.2 316.8 259.2 
C 316.8 259.2 316.8 259.2 316.8 259.2 
C 316.8 259.2 316.8 259.2 316.8 259.2 
C 316.8 259.2 316.8 259.2 316.8 259.2 
C 316.8 259.2 316.8 259.2 316.8 259.2 
C 316.8 259.2 316.8 259.2 316.8 259.2 
C 316.8 259.2 316.8 259.2 316.8 259.2 
C 316.8 259.2 316.8 259.2 316.8 259.2 
C 316.8 259.2 316.8 259.2 316.8 259.2 
z
"/>
  </clipPath>
 </defs>
</svg>
